<svg xmlns="http://www.w3.org/2000/svg" xmlns:xlink="http://www.w3.org/1999/xlink" xmlns:inkscape="http://www.inkscape.org/namespaces/inkscape" version="1.1" width="460.8" height="345.6" viewBox="0 0 460.8 345.6">
<defs>
<clipPath id="clip_0">
<path transform="matrix(1,0,0,-1,0,345.6)" d="M57.6 43.2H414.72V304.12803H57.6Z"/>
</clipPath>
<clipPath id="clip_1">
<path transform="matrix(1,0,0,-1,0,345.6)" d="M57.6 43.2H414.72V304.12803H57.6Z"/>
</clipPath>
<clipPath id="clip_2">
<path transform="matrix(1,0,0,-1,0,345.6)" d="M57.6 43.2H414.72V304.12803H57.6Z"/>
</clipPath>
<clipPath id="clip_3">
<path transform="matrix(1,0,0,-1,0,345.6)" d="M57.6 43.2H414.72V304.12803H57.6Z"/>
</clipPath>
<clipPath id="clip_4">
<path transform="matrix(1,0,0,-1,0,345.6)" d="M57.6 43.2H414.72V304.12803H57.6Z"/>
</clipPath>
<clipPath id="clip_5">
<path transform="matrix(1,0,0,-1,0,345.6)" d="M57.6 43.2H414.72V304.12803H57.6Z"/>
</clipPath>
<clipPath id="clip_6">
<path transform="matrix(1,0,0,-1,0,345.6)" d="M57.6 43.2H414.72V304.12803H57.6Z"/>
</clipPath>
<clipPath id="clip_7">
<path transform="matrix(1,0,0,-1,0,345.6)" d="M57.6 43.2H414.72V304.12803H57.6Z"/>
</clipPath>
<clipPath id="clip_8">
<path transform="matrix(1,0,0,-1,0,345.6)" d="M57.6 43.2H414.72V304.12803H57.6Z"/>
</clipPath>
<clipPath id="clip_9">
<path transform="matrix(1,0,0,-1,0,345.6)" d="M57.6 43.2H414.72V304.12803H57.6Z"/>
</clipPath>
<clipPath id="clip_10">
<path transform="matrix(1,0,0,-1,0,345.6)" d="M57.6 43.2H414.72V304.12803H57.6Z"/>
</clipPath>
<clipPath id="clip_11">
<path transform="matrix(1,0,0,-1,0,345.6)" d="M57.6 43.2H414.72V304.12803H57.6Z"/>
</clipPath>
<clipPath id="clip_12">
<path transform="matrix(1,0,0,-1,0,345.6)" d="M57.6 43.2H414.72V304.12803H57.6Z"/>
</clipPath>
<clipPath id="clip_13">
<path transform="matrix(1,0,0,-1,0,345.6)" d="M57.6 43.2H414.72V304.12803H57.6Z"/>
</clipPath>
<clipPath id="clip_14">
<path transform="matrix(1,0,0,-1,0,345.6)" d="M57.6 43.2H414.72V304.12803H57.6Z"/>
</clipPath>
<clipPath id="clip_15">
<path transform="matrix(1,0,0,-1,0,345.6)" d="M57.6 43.2H414.72V304.12803H57.6Z"/>
</clipPath>
<clipPath id="clip_16">
<path transform="matrix(1,0,0,-1,0,345.6)" d="M57.6 43.2H414.72V304.12803H57.6Z"/>
</clipPath>
<clipPath id="clip_17">
<path transform="matrix(1,0,0,-1,0,345.6)" d="M57.6 43.2H414.72V304.12803H57.6Z"/>
</clipPath>
<clipPath id="clip_18">
<path transform="matrix(1,0,0,-1,73.832729,67.02466)" d="M-8-8H8V8H-8Z"/>
</clipPath>
<clipPath id="clip_19">
<path transform="matrix(1,0,0,-1,120.211948,69.154209)" d="M-8-8H8V8H-8Z"/>
</clipPath>
<clipPath id="clip_20">
<path transform="matrix(1,0,0,-1,166.59116,105.356517)" d="M-8-8H8V8H-8Z"/>
</clipPath>
<clipPath id="clip_21">
<path transform="matrix(1,0,0,-1,212.97037,135.17018)" d="M-8-8H8V8H-8Z"/>
</clipPath>
<clipPath id="clip_22">
<path transform="matrix(1,0,0,-1,259.34959,133.04064)" d="M-8-8H8V8H-8Z"/>
</clipPath>
<clipPath id="clip_23">
<path transform="matrix(1,0,0,-1,305.7288,105.356517)" d="M-8-8H8V8H-8Z"/>
</clipPath>
<clipPath id="clip_24">
<path transform="matrix(1,0,0,-1,352.108,88.32013)" d="M-8-8H8V8H-8Z"/>
</clipPath>
<clipPath id="clip_25">
<path transform="matrix(1,0,0,-1,398.4872,128.78153)" d="M-8-8H8V8H-8Z"/>
</clipPath>
<clipPath id="clip_26">
<path transform="matrix(1,0,0,-1,0,345.6)" d="M57.6 43.2H414.72V304.12803H57.6Z"/>
</clipPath>
<clipPath id="clip_27">
<path transform="matrix(1,0,0,-1,73.832729,88.32013)" d="M-8-8H8V8H-8Z"/>
</clipPath>
<clipPath id="clip_28">
<path transform="matrix(1,0,0,-1,120.211948,152.20656)" d="M-8-8H8V8H-8Z"/>
</clipPath>
<clipPath id="clip_29">
<path transform="matrix(1,0,0,-1,166.59116,126.65199)" d="M-8-8H8V8H-8Z"/>
</clipPath>
<clipPath id="clip_30">
<path transform="matrix(1,0,0,-1,212.97037,156.46566)" d="M-8-8H8V8H-8Z"/>
</clipPath>
<clipPath id="clip_31">
<path transform="matrix(1,0,0,-1,259.34959,171.37248)" d="M-8-8H8V8H-8Z"/>
</clipPath>
<clipPath id="clip_32">
<path transform="matrix(1,0,0,-1,305.7288,233.12937)" d="M-8-8H8V8H-8Z"/>
</clipPath>
<clipPath id="clip_33">
<path transform="matrix(1,0,0,-1,352.108,262.94303)" d="M-8-8H8V8H-8Z"/>
</clipPath>
<clipPath id="clip_34">
<path transform="matrix(1,0,0,-1,398.4872,152.20655)" d="M-8-8H8V8H-8Z"/>
</clipPath>
</defs>
<g>
<path transform="matrix(1,0,0,-1,0,345.6)" d="M0 0H460.8V345.6H0Z" fill="#ffffff"/>
<path transform="matrix(1,0,0,-1,0,345.6)" d="M57.6 43.2H414.72V304.128H57.6Z" fill="#ffffff"/>
<g clip-path="url(#clip_0)">
<path transform="matrix(1,0,0,-1,0,345.6)" stroke-width=".8" stroke-linecap="round" stroke-linejoin="round" fill="none" stroke="#cccccc" d="M73.832729 43.2V304.128"/>
</g>
<text fill="#262626" xml:space="preserve" transform="matrix(1 0 -0 1 0 345.6)" font-size="14" font-family="ArialMT"><tspan y="-26.184376" x="55.16085 62.16085 69.944858 77.72886 84.72886">conv1</tspan></text>
<g clip-path="url(#clip_1)">
<path transform="matrix(1,0,0,-1,0,345.6)" stroke-width=".8" stroke-linecap="round" stroke-linejoin="round" fill="none" stroke="#cccccc" d="M120.211948 43.2V304.128"/>
</g>
<text fill="#262626" xml:space="preserve" transform="matrix(1 0 -0 1 0 345.6)" font-size="14" font-family="ArialMT"><tspan y="-26.184376" x="101.54007 108.54007 116.32407 124.10808 131.10808">conv2</tspan></text>
<g clip-path="url(#clip_2)">
<path transform="matrix(1,0,0,-1,0,345.6)" stroke-width=".8" stroke-linecap="round" stroke-linejoin="round" fill="none" stroke="#cccccc" d="M166.59117 43.2V304.128"/>
</g>
<text fill="#262626" xml:space="preserve" transform="matrix(1 0 -0 1 0 345.6)" font-size="14" font-family="ArialMT"><tspan y="-26.184376" x="147.9193 154.9193 162.7033 170.48729 177.48729">conv3</tspan></text>
<g clip-path="url(#clip_3)">
<path transform="matrix(1,0,0,-1,0,345.6)" stroke-width=".8" stroke-linecap="round" stroke-linejoin="round" fill="none" stroke="#cccccc" d="M212.97039 43.2V304.128"/>
</g>
<text fill="#262626" xml:space="preserve" transform="matrix(1 0 -0 1 0 345.6)" font-size="14" font-family="ArialMT"><tspan y="-26.184376" x="194.29851 201.29851 209.0825 216.8665 223.8665">conv4</tspan></text>
<g clip-path="url(#clip_4)">
<path transform="matrix(1,0,0,-1,0,345.6)" stroke-width=".8" stroke-linecap="round" stroke-linejoin="round" fill="none" stroke="#cccccc" d="M259.3496 43.2V304.128"/>
</g>
<text fill="#262626" xml:space="preserve" transform="matrix(1 0 -0 1 0 345.6)" font-size="14" font-family="ArialMT"><tspan y="-26.184376" x="240.67774 247.67774 255.46173 263.24574 270.24574">conv5</tspan></text>
<g clip-path="url(#clip_5)">
<path transform="matrix(1,0,0,-1,0,345.6)" stroke-width=".8" stroke-linecap="round" stroke-linejoin="round" fill="none" stroke="#cccccc" d="M305.72883 43.2V304.128"/>
</g>
<text fill="#262626" xml:space="preserve" transform="matrix(1 0 -0 1 0 345.6)" font-size="14" font-family="ArialMT"><tspan y="-26.184376" x="296.39289 300.28489 307.28489">fc1</tspan></text>
<g clip-path="url(#clip_6)">
<path transform="matrix(1,0,0,-1,0,345.6)" stroke-width=".8" stroke-linecap="round" stroke-linejoin="round" fill="none" stroke="#cccccc" d="M352.10807 43.2V304.128"/>
</g>
<text fill="#262626" xml:space="preserve" transform="matrix(1 0 -0 1 0 345.6)" font-size="14" font-family="ArialMT"><tspan y="-26.184376" x="342.77214 346.66413 353.66413">fc2</tspan></text>
<g clip-path="url(#clip_7)">
<path transform="matrix(1,0,0,-1,0,345.6)" stroke-width=".8" stroke-linecap="round" stroke-linejoin="round" fill="none" stroke="#cccccc" d="M398.48728 43.2V304.128"/>
</g>
<text fill="#262626" xml:space="preserve" transform="matrix(1 0 -0 1 0 345.6)" font-size="14" font-family="ArialMT"><tspan y="-26.184376" x="389.15135 393.04335 400.04335">fc3</tspan></text>
<g clip-path="url(#clip_8)">
<path transform="matrix(1,0,0,-1,0,345.6)" stroke-width=".8" stroke-linecap="round" stroke-linejoin="round" fill="none" stroke="#cccccc" d="M57.6 69.45378H414.72"/>
</g>
<text fill="#262626" xml:space="preserve" transform="matrix(1 0 -0 1 0 345.6)" font-size="14" font-family="ArialMT"><tspan y="-64.44597" x="23.365626 31.149626 35.041627 42.825628">0.65</tspan></text>
<g clip-path="url(#clip_9)">
<path transform="matrix(1,0,0,-1,0,345.6)" stroke-width=".8" stroke-linecap="round" stroke-linejoin="round" fill="none" stroke="#cccccc" d="M57.6 106.93382H414.72"/>
</g>
<text fill="#262626" xml:space="preserve" transform="matrix(1 0 -0 1 0 345.6)" font-size="14" font-family="ArialMT"><tspan y="-101.926" x="23.365626 31.149626 35.041627 42.825628">0.70</tspan></text>
<g clip-path="url(#clip_10)">
<path transform="matrix(1,0,0,-1,0,345.6)" stroke-width=".8" stroke-linecap="round" stroke-linejoin="round" fill="none" stroke="#cccccc" d="M57.6 144.41385H414.72"/>
</g>
<text fill="#262626" xml:space="preserve" transform="matrix(1 0 -0 1 0 345.6)" font-size="14" font-family="ArialMT"><tspan y="-139.40604" x="23.365626 31.149626 35.041627 42.825628">0.75</tspan></text>
<g clip-path="url(#clip_11)">
<path transform="matrix(1,0,0,-1,0,345.6)" stroke-width=".8" stroke-linecap="round" stroke-linejoin="round" fill="none" stroke="#cccccc" d="M57.6 181.89389H414.72"/>
</g>
<text fill="#262626" xml:space="preserve" transform="matrix(1 0 -0 1 0 345.6)" font-size="14" font-family="ArialMT"><tspan y="-176.88608" x="23.365626 31.149626 35.041627 42.825628">0.80</tspan></text>
<g clip-path="url(#clip_12)">
<path transform="matrix(1,0,0,-1,0,345.6)" stroke-width=".8" stroke-linecap="round" stroke-linejoin="round" fill="none" stroke="#cccccc" d="M57.6 219.37393H414.72"/>
</g>
<text fill="#262626" xml:space="preserve" transform="matrix(1 0 -0 1 0 345.6)" font-size="14" font-family="ArialMT"><tspan y="-214.36612" x="23.365626 31.149626 35.041627 42.825628">0.85</tspan></text>
<g clip-path="url(#clip_13)">
<path transform="matrix(1,0,0,-1,0,345.6)" stroke-width=".8" stroke-linecap="round" stroke-linejoin="round" fill="none" stroke="#cccccc" d="M57.6 256.85398H414.72"/>
</g>
<text fill="#262626" xml:space="preserve" transform="matrix(1 0 -0 1 0 345.6)" font-size="14" font-family="ArialMT"><tspan y="-251.84615" x="23.365626 31.149626 35.041627 42.825628">0.90</tspan></text>
<g clip-path="url(#clip_14)">
<path transform="matrix(1,0,0,-1,0,345.6)" stroke-width=".8" stroke-linecap="round" stroke-linejoin="round" fill="none" stroke="#cccccc" d="M57.6 294.334H414.72"/>
</g>
<text fill="#262626" xml:space="preserve" transform="matrix(1 0 -0 1 0 345.6)" font-size="14" font-family="ArialMT"><tspan y="-289.32618" x="23.365626 31.149626 35.041627 42.825628">0.95</tspan></text>
<text fill="#262626" xml:space="preserve" transform="matrix(0 -1 1 0 0 345.6)" font-size="14" font-family="ArialMT"><tspan y="16.4125" x="75.484317 85.592319 92.592319 100.37632 105.03832 108.93032 115.93032 119.82232 127.60632 135.39032 142.39032 146.28232 154.06632 161.06632 168.06632 175.85031 180.51232 188.29631 195.29631 202.29631 206.18831 210.85031 219.0263 222.9183 227.5803 231.4723 238.4723 242.3643 250.1483 257.9323 262.5943 267.2563">User study accuracy (+/- stderr)</tspan></text>
<g clip-path="url(#clip_15)">
<g>
<path transform="matrix(1,0,0,-1,0,345.6)" d="M73.832729 290.60935V266.54136L120.211948 260.62397 166.59117 232.8053 212.97039 192.30156 259.3496 193.38556 305.72883 228.72292 352.10807 241.65996 398.48728 202.95186V230.68508L352.10807 272.89979 305.72883 251.76407 259.3496 231.73319 212.97039 228.5581 166.59117 247.68169 120.211948 292.26765 73.832729 290.60935Z" fill="#1f77b4" fill-opacity=".33"/>
<path transform="matrix(1,0,0,-1,0,345.6)" stroke-width="1" stroke-linecap="butt" stroke-linejoin="round" fill="none" stroke="#ffffff" stroke-opacity=".33" d="M73.832729 290.60935V266.54136L120.211948 260.62397 166.59117 232.8053 212.97039 192.30156 259.3496 193.38556 305.72883 228.72292 352.10807 241.65996 398.48728 202.95186V230.68508L352.10807 272.89979 305.72883 251.76407 259.3496 231.73319 212.97039 228.5581 166.59117 247.68169 120.211948 292.26765 73.832729 290.60935Z"/>
</g>
</g>
<g clip-path="url(#clip_16)">
<g>
<path transform="matrix(1,0,0,-1,0,345.6)" d="M73.832729 276.25556V238.30419L120.211948 173.6066 166.59117 204.79013 212.97039 169.65549 259.3496 152.93206 305.72883 79.85309 352.10807 55.060365 398.48728 179.32125V207.46566L352.10807 110.25359 305.72883 145.0882 259.3496 195.523 212.97039 208.61322 166.59117 233.10591 120.211948 213.1803 73.832729 276.25556Z" fill="#ff7f0e" fill-opacity=".33"/>
<path transform="matrix(1,0,0,-1,0,345.6)" stroke-width="1" stroke-linecap="butt" stroke-linejoin="round" fill="none" stroke="#ffffff" stroke-opacity=".33" d="M73.832729 276.25556V238.30419L120.211948 173.6066 166.59117 204.79013 212.97039 169.65549 259.3496 152.93206 305.72883 79.85309 352.10807 55.060365 398.48728 179.32125V207.46566L352.10807 110.25359 305.72883 145.0882 259.3496 195.523 212.97039 208.61322 166.59117 233.10591 120.211948 213.1803 73.832729 276.25556Z"/>
</g>
</g>
<g clip-path="url(#clip_17)">
<path transform="matrix(1,0,0,-1,0,345.6)" stroke-width="1.5" stroke-linecap="round" stroke-linejoin="round" fill="none" stroke="#1f77b4" d="M73.832729 278.57536 120.211948 276.4458 166.59117 240.2435 212.97039 210.42983 259.3496 212.55937 305.72883 240.2435 352.10807 257.27989 398.48728 216.81847"/>
<g clip-path="url(#clip_18)">
<path transform="matrix(1,0,0,-1,73.832729,67.02466)" d="M0-3C.795609-3 1.55874-2.683901 2.12132-2.12132 2.683901-1.55874 3-.795609 3 0 3 .795609 2.683901 1.55874 2.12132 2.12132 1.55874 2.683901 .795609 3 0 3-.795609 3-1.55874 2.683901-2.12132 2.12132-2.683901 1.55874-3 .795609-3 0-3-.795609-2.683901-1.55874-2.12132-2.12132-1.55874-2.683901-.795609-3 0-3Z" fill="#1f77b4"/>
<path transform="matrix(1,0,0,-1,73.832729,67.02466)" stroke-width="1" stroke-linecap="butt" stroke-linejoin="round" fill="none" stroke="#1f77b4" d="M0-3C.795609-3 1.55874-2.683901 2.12132-2.12132 2.683901-1.55874 3-.795609 3 0 3 .795609 2.683901 1.55874 2.12132 2.12132 1.55874 2.683901 .795609 3 0 3-.795609 3-1.55874 2.683901-2.12132 2.12132-2.683901 1.55874-3 .795609-3 0-3-.795609-2.683901-1.55874-2.12132-2.12132-1.55874-2.683901-.795609-3 0-3Z"/>
</g>
<g clip-path="url(#clip_19)">
<path transform="matrix(1,0,0,-1,120.211948,69.154209)" d="M0-3C.795609-3 1.55874-2.683901 2.12132-2.12132 2.683901-1.55874 3-.795609 3 0 3 .795609 2.683901 1.55874 2.12132 2.12132 1.55874 2.683901 .795609 3 0 3-.795609 3-1.55874 2.683901-2.12132 2.12132-2.683901 1.55874-3 .795609-3 0-3-.795609-2.683901-1.55874-2.12132-2.12132-1.55874-2.683901-.795609-3 0-3Z" fill="#1f77b4"/>
<path transform="matrix(1,0,0,-1,120.211948,69.154209)" stroke-width="1" stroke-linecap="butt" stroke-linejoin="round" fill="none" stroke="#1f77b4" d="M0-3C.795609-3 1.55874-2.683901 2.12132-2.12132 2.683901-1.55874 3-.795609 3 0 3 .795609 2.683901 1.55874 2.12132 2.12132 1.55874 2.683901 .795609 3 0 3-.795609 3-1.55874 2.683901-2.12132 2.12132-2.683901 1.55874-3 .795609-3 0-3-.795609-2.683901-1.55874-2.12132-2.12132-1.55874-2.683901-.795609-3 0-3Z"/>
</g>
<g clip-path="url(#clip_20)">
<path transform="matrix(1,0,0,-1,166.59116,105.356517)" d="M0-3C.795609-3 1.55874-2.683901 2.12132-2.12132 2.683901-1.55874 3-.795609 3 0 3 .795609 2.683901 1.55874 2.12132 2.12132 1.55874 2.683901 .795609 3 0 3-.795609 3-1.55874 2.683901-2.12132 2.12132-2.683901 1.55874-3 .795609-3 0-3-.795609-2.683901-1.55874-2.12132-2.12132-1.55874-2.683901-.795609-3 0-3Z" fill="#1f77b4"/>
<path transform="matrix(1,0,0,-1,166.59116,105.356517)" stroke-width="1" stroke-linecap="butt" stroke-linejoin="round" fill="none" stroke="#1f77b4" d="M0-3C.795609-3 1.55874-2.683901 2.12132-2.12132 2.683901-1.55874 3-.795609 3 0 3 .795609 2.683901 1.55874 2.12132 2.12132 1.55874 2.683901 .795609 3 0 3-.795609 3-1.55874 2.683901-2.12132 2.12132-2.683901 1.55874-3 .795609-3 0-3-.795609-2.683901-1.55874-2.12132-2.12132-1.55874-2.683901-.795609-3 0-3Z"/>
</g>
<g clip-path="url(#clip_21)">
<path transform="matrix(1,0,0,-1,212.97037,135.17018)" d="M0-3C.795609-3 1.55874-2.683901 2.12132-2.12132 2.683901-1.55874 3-.795609 3 0 3 .795609 2.683901 1.55874 2.12132 2.12132 1.55874 2.683901 .795609 3 0 3-.795609 3-1.55874 2.683901-2.12132 2.12132-2.683901 1.55874-3 .795609-3 0-3-.795609-2.683901-1.55874-2.12132-2.12132-1.55874-2.683901-.795609-3 0-3Z" fill="#1f77b4"/>
<path transform="matrix(1,0,0,-1,212.97037,135.17018)" stroke-width="1" stroke-linecap="butt" stroke-linejoin="round" fill="none" stroke="#1f77b4" d="M0-3C.795609-3 1.55874-2.683901 2.12132-2.12132 2.683901-1.55874 3-.795609 3 0 3 .795609 2.683901 1.55874 2.12132 2.12132 1.55874 2.683901 .795609 3 0 3-.795609 3-1.55874 2.683901-2.12132 2.12132-2.683901 1.55874-3 .795609-3 0-3-.795609-2.683901-1.55874-2.12132-2.12132-1.55874-2.683901-.795609-3 0-3Z"/>
</g>
<g clip-path="url(#clip_22)">
<path transform="matrix(1,0,0,-1,259.34959,133.04064)" d="M0-3C.795609-3 1.55874-2.683901 2.12132-2.12132 2.683901-1.55874 3-.795609 3 0 3 .795609 2.683901 1.55874 2.12132 2.12132 1.55874 2.683901 .795609 3 0 3-.795609 3-1.55874 2.683901-2.12132 2.12132-2.683901 1.55874-3 .795609-3 0-3-.795609-2.683901-1.55874-2.12132-2.12132-1.55874-2.683901-.795609-3 0-3Z" fill="#1f77b4"/>
<path transform="matrix(1,0,0,-1,259.34959,133.04064)" stroke-width="1" stroke-linecap="butt" stroke-linejoin="round" fill="none" stroke="#1f77b4" d="M0-3C.795609-3 1.55874-2.683901 2.12132-2.12132 2.683901-1.55874 3-.795609 3 0 3 .795609 2.683901 1.55874 2.12132 2.12132 1.55874 2.683901 .795609 3 0 3-.795609 3-1.55874 2.683901-2.12132 2.12132-2.683901 1.55874-3 .795609-3 0-3-.795609-2.683901-1.55874-2.12132-2.12132-1.55874-2.683901-.795609-3 0-3Z"/>
</g>
<g clip-path="url(#clip_23)">
<path transform="matrix(1,0,0,-1,305.7288,105.356517)" d="M0-3C.795609-3 1.55874-2.683901 2.12132-2.12132 2.683901-1.55874 3-.795609 3 0 3 .795609 2.683901 1.55874 2.12132 2.12132 1.55874 2.683901 .795609 3 0 3-.795609 3-1.55874 2.683901-2.12132 2.12132-2.683901 1.55874-3 .795609-3 0-3-.795609-2.683901-1.55874-2.12132-2.12132-1.55874-2.683901-.795609-3 0-3Z" fill="#1f77b4"/>
<path transform="matrix(1,0,0,-1,305.7288,105.356517)" stroke-width="1" stroke-linecap="butt" stroke-linejoin="round" fill="none" stroke="#1f77b4" d="M0-3C.795609-3 1.55874-2.683901 2.12132-2.12132 2.683901-1.55874 3-.795609 3 0 3 .795609 2.683901 1.55874 2.12132 2.12132 1.55874 2.683901 .795609 3 0 3-.795609 3-1.55874 2.683901-2.12132 2.12132-2.683901 1.55874-3 .795609-3 0-3-.795609-2.683901-1.55874-2.12132-2.12132-1.55874-2.683901-.795609-3 0-3Z"/>
</g>
<g clip-path="url(#clip_24)">
<path transform="matrix(1,0,0,-1,352.108,88.32013)" d="M0-3C.795609-3 1.55874-2.683901 2.12132-2.12132 2.683901-1.55874 3-.795609 3 0 3 .795609 2.683901 1.55874 2.12132 2.12132 1.55874 2.683901 .795609 3 0 3-.795609 3-1.55874 2.683901-2.12132 2.12132-2.683901 1.55874-3 .795609-3 0-3-.795609-2.683901-1.55874-2.12132-2.12132-1.55874-2.683901-.795609-3 0-3Z" fill="#1f77b4"/>
<path transform="matrix(1,0,0,-1,352.108,88.32013)" stroke-width="1" stroke-linecap="butt" stroke-linejoin="round" fill="none" stroke="#1f77b4" d="M0-3C.795609-3 1.55874-2.683901 2.12132-2.12132 2.683901-1.55874 3-.795609 3 0 3 .795609 2.683901 1.55874 2.12132 2.12132 1.55874 2.683901 .795609 3 0 3-.795609 3-1.55874 2.683901-2.12132 2.12132-2.683901 1.55874-3 .795609-3 0-3-.795609-2.683901-1.55874-2.12132-2.12132-1.55874-2.683901-.795609-3 0-3Z"/>
</g>
<g clip-path="url(#clip_25)">
<path transform="matrix(1,0,0,-1,398.4872,128.78153)" d="M0-3C.795609-3 1.55874-2.683901 2.12132-2.12132 2.683901-1.55874 3-.795609 3 0 3 .795609 2.683901 1.55874 2.12132 2.12132 1.55874 2.683901 .795609 3 0 3-.795609 3-1.55874 2.683901-2.12132 2.12132-2.683901 1.55874-3 .795609-3 0-3-.795609-2.683901-1.55874-2.12132-2.12132-1.55874-2.683901-.795609-3 0-3Z" fill="#1f77b4"/>
<path transform="matrix(1,0,0,-1,398.4872,128.78153)" stroke-width="1" stroke-linecap="butt" stroke-linejoin="round" fill="none" stroke="#1f77b4" d="M0-3C.795609-3 1.55874-2.683901 2.12132-2.12132 2.683901-1.55874 3-.795609 3 0 3 .795609 2.683901 1.55874 2.12132 2.12132 1.55874 2.683901 .795609 3 0 3-.795609 3-1.55874 2.683901-2.12132 2.12132-2.683901 1.55874-3 .795609-3 0-3-.795609-2.683901-1.55874-2.12132-2.12132-1.55874-2.683901-.795609-3 0-3Z"/>
</g>
</g>
<g clip-path="url(#clip_26)">
<path transform="matrix(1,0,0,-1,0,345.6)" stroke-width="1.5" stroke-linecap="round" stroke-linejoin="round" fill="none" stroke="#ff7f0e" d="M73.832729 257.27989 120.211948 193.39345 166.59117 218.94802 212.97039 189.13436 259.3496 174.22753 305.72883 112.47064 352.10807 82.656978 398.48728 193.39345"/>
<g clip-path="url(#clip_27)">
<path transform="matrix(1,0,0,-1,73.832729,88.32013)" d="M0-3C.795609-3 1.55874-2.683901 2.12132-2.12132 2.683901-1.55874 3-.795609 3 0 3 .795609 2.683901 1.55874 2.12132 2.12132 1.55874 2.683901 .795609 3 0 3-.795609 3-1.55874 2.683901-2.12132 2.12132-2.683901 1.55874-3 .795609-3 0-3-.795609-2.683901-1.55874-2.12132-2.12132-1.55874-2.683901-.795609-3 0-3Z" fill="#ff7f0e"/>
<path transform="matrix(1,0,0,-1,73.832729,88.32013)" stroke-width="1" stroke-linecap="butt" stroke-linejoin="round" fill="none" stroke="#ff7f0e" d="M0-3C.795609-3 1.55874-2.683901 2.12132-2.12132 2.683901-1.55874 3-.795609 3 0 3 .795609 2.683901 1.55874 2.12132 2.12132 1.55874 2.683901 .795609 3 0 3-.795609 3-1.55874 2.683901-2.12132 2.12132-2.683901 1.55874-3 .795609-3 0-3-.795609-2.683901-1.55874-2.12132-2.12132-1.55874-2.683901-.795609-3 0-3Z"/>
</g>
<g clip-path="url(#clip_28)">
<path transform="matrix(1,0,0,-1,120.211948,152.20656)" d="M0-3C.795609-3 1.55874-2.683901 2.12132-2.12132 2.683901-1.55874 3-.795609 3 0 3 .795609 2.683901 1.55874 2.12132 2.12132 1.55874 2.683901 .795609 3 0 3-.795609 3-1.55874 2.683901-2.12132 2.12132-2.683901 1.55874-3 .795609-3 0-3-.795609-2.683901-1.55874-2.12132-2.12132-1.55874-2.683901-.795609-3 0-3Z" fill="#ff7f0e"/>
<path transform="matrix(1,0,0,-1,120.211948,152.20656)" stroke-width="1" stroke-linecap="butt" stroke-linejoin="round" fill="none" stroke="#ff7f0e" d="M0-3C.795609-3 1.55874-2.683901 2.12132-2.12132 2.683901-1.55874 3-.795609 3 0 3 .795609 2.683901 1.55874 2.12132 2.12132 1.55874 2.683901 .795609 3 0 3-.795609 3-1.55874 2.683901-2.12132 2.12132-2.683901 1.55874-3 .795609-3 0-3-.795609-2.683901-1.55874-2.12132-2.12132-1.55874-2.683901-.795609-3 0-3Z"/>
</g>
<g clip-path="url(#clip_29)">
<path transform="matrix(1,0,0,-1,166.59116,126.65199)" d="M0-3C.795609-3 1.55874-2.683901 2.12132-2.12132 2.683901-1.55874 3-.795609 3 0 3 .795609 2.683901 1.55874 2.12132 2.12132 1.55874 2.683901 .795609 3 0 3-.795609 3-1.55874 2.683901-2.12132 2.12132-2.683901 1.55874-3 .795609-3 0-3-.795609-2.683901-1.55874-2.12132-2.12132-1.55874-2.683901-.795609-3 0-3Z" fill="#ff7f0e"/>
<path transform="matrix(1,0,0,-1,166.59116,126.65199)" stroke-width="1" stroke-linecap="butt" stroke-linejoin="round" fill="none" stroke="#ff7f0e" d="M0-3C.795609-3 1.55874-2.683901 2.12132-2.12132 2.683901-1.55874 3-.795609 3 0 3 .795609 2.683901 1.55874 2.12132 2.12132 1.55874 2.683901 .795609 3 0 3-.795609 3-1.55874 2.683901-2.12132 2.12132-2.683901 1.55874-3 .795609-3 0-3-.795609-2.683901-1.55874-2.12132-2.12132-1.55874-2.683901-.795609-3 0-3Z"/>
</g>
<g clip-path="url(#clip_30)">
<path transform="matrix(1,0,0,-1,212.97037,156.46566)" d="M0-3C.795609-3 1.55874-2.683901 2.12132-2.12132 2.683901-1.55874 3-.795609 3 0 3 .795609 2.683901 1.55874 2.12132 2.12132 1.55874 2.683901 .795609 3 0 3-.795609 3-1.55874 2.683901-2.12132 2.12132-2.683901 1.55874-3 .795609-3 0-3-.795609-2.683901-1.55874-2.12132-2.12132-1.55874-2.683901-.795609-3 0-3Z" fill="#ff7f0e"/>
<path transform="matrix(1,0,0,-1,212.97037,156.46566)" stroke-width="1" stroke-linecap="butt" stroke-linejoin="round" fill="none" stroke="#ff7f0e" d="M0-3C.795609-3 1.55874-2.683901 2.12132-2.12132 2.683901-1.55874 3-.795609 3 0 3 .795609 2.683901 1.55874 2.12132 2.12132 1.55874 2.683901 .795609 3 0 3-.795609 3-1.55874 2.683901-2.12132 2.12132-2.683901 1.55874-3 .795609-3 0-3-.795609-2.683901-1.55874-2.12132-2.12132-1.55874-2.683901-.795609-3 0-3Z"/>
</g>
<g clip-path="url(#clip_31)">
<path transform="matrix(1,0,0,-1,259.34959,171.37248)" d="M0-3C.795609-3 1.55874-2.683901 2.12132-2.12132 2.683901-1.55874 3-.795609 3 0 3 .795609 2.683901 1.55874 2.12132 2.12132 1.55874 2.683901 .795609 3 0 3-.795609 3-1.55874 2.683901-2.12132 2.12132-2.683901 1.55874-3 .795609-3 0-3-.795609-2.683901-1.55874-2.12132-2.12132-1.55874-2.683901-.795609-3 0-3Z" fill="#ff7f0e"/>
<path transform="matrix(1,0,0,-1,259.34959,171.37248)" stroke-width="1" stroke-linecap="butt" stroke-linejoin="round" fill="none" stroke="#ff7f0e" d="M0-3C.795609-3 1.55874-2.683901 2.12132-2.12132 2.683901-1.55874 3-.795609 3 0 3 .795609 2.683901 1.55874 2.12132 2.12132 1.55874 2.683901 .795609 3 0 3-.795609 3-1.55874 2.683901-2.12132 2.12132-2.683901 1.55874-3 .795609-3 0-3-.795609-2.683901-1.55874-2.12132-2.12132-1.55874-2.683901-.795609-3 0-3Z"/>
</g>
<g clip-path="url(#clip_32)">
<path transform="matrix(1,0,0,-1,305.7288,233.12937)" d="M0-3C.795609-3 1.55874-2.683901 2.12132-2.12132 2.683901-1.55874 3-.795609 3 0 3 .795609 2.683901 1.55874 2.12132 2.12132 1.55874 2.683901 .795609 3 0 3-.795609 3-1.55874 2.683901-2.12132 2.12132-2.683901 1.55874-3 .795609-3 0-3-.795609-2.683901-1.55874-2.12132-2.12132-1.55874-2.683901-.795609-3 0-3Z" fill="#ff7f0e"/>
<path transform="matrix(1,0,0,-1,305.7288,233.12937)" stroke-width="1" stroke-linecap="butt" stroke-linejoin="round" fill="none" stroke="#ff7f0e" d="M0-3C.795609-3 1.55874-2.683901 2.12132-2.12132 2.683901-1.55874 3-.795609 3 0 3 .795609 2.683901 1.55874 2.12132 2.12132 1.55874 2.683901 .795609 3 0 3-.795609 3-1.55874 2.683901-2.12132 2.12132-2.683901 1.55874-3 .795609-3 0-3-.795609-2.683901-1.55874-2.12132-2.12132-1.55874-2.683901-.795609-3 0-3Z"/>
</g>
<g clip-path="url(#clip_33)">
<path transform="matrix(1,0,0,-1,352.108,262.94303)" d="M0-3C.795609-3 1.55874-2.683901 2.12132-2.12132 2.683901-1.55874 3-.795609 3 0 3 .795609 2.683901 1.55874 2.12132 2.12132 1.55874 2.683901 .795609 3 0 3-.795609 3-1.55874 2.683901-2.12132 2.12132-2.683901 1.55874-3 .795609-3 0-3-.795609-2.683901-1.55874-2.12132-2.12132-1.55874-2.683901-.795609-3 0-3Z" fill="#ff7f0e"/>
<path transform="matrix(1,0,0,-1,352.108,262.94303)" stroke-width="1" stroke-linecap="butt" stroke-linejoin="round" fill="none" stroke="#ff7f0e" d="M0-3C.795609-3 1.55874-2.683901 2.12132-2.12132 2.683901-1.55874 3-.795609 3 0 3 .795609 2.683901 1.55874 2.12132 2.12132 1.55874 2.683901 .795609 3 0 3-.795609 3-1.55874 2.683901-2.12132 2.12132-2.683901 1.55874-3 .795609-3 0-3-.795609-2.683901-1.55874-2.12132-2.12132-1.55874-2.683901-.795609-3 0-3Z"/>
</g>
<g clip-path="url(#clip_34)">
<path transform="matrix(1,0,0,-1,398.4872,152.20655)" d="M0-3C.795609-3 1.55874-2.683901 2.12132-2.12132 2.683901-1.55874 3-.795609 3 0 3 .795609 2.683901 1.55874 2.12132 2.12132 1.55874 2.683901 .795609 3 0 3-.795609 3-1.55874 2.683901-2.12132 2.12132-2.683901 1.55874-3 .795609-3 0-3-.795609-2.683901-1.55874-2.12132-2.12132-1.55874-2.683901-.795609-3 0-3Z" fill="#ff7f0e"/>
<path transform="matrix(1,0,0,-1,398.4872,152.20655)" stroke-width="1" stroke-linecap="butt" stroke-linejoin="round" fill="none" stroke="#ff7f0e" d="M0-3C.795609-3 1.55874-2.683901 2.12132-2.12132 2.683901-1.55874 3-.795609 3 0 3 .795609 2.683901 1.55874 2.12132 2.12132 1.55874 2.683901 .795609 3 0 3-.795609 3-1.55874 2.683901-2.12132 2.12132-2.683901 1.55874-3 .795609-3 0-3-.795609-2.683901-1.55874-2.12132-2.12132-1.55874-2.683901-.795609-3 0-3Z"/>
</g>
</g>
<path transform="matrix(1,0,0,-1,0,345.6)" stroke-width=".8" stroke-linecap="square" stroke-miterlimit="10" stroke-linejoin="miter" fill="none" stroke="#cccccc" d="M57.6 43.2V304.128"/>
<path transform="matrix(1,0,0,-1,0,345.6)" stroke-width=".8" stroke-linecap="square" stroke-miterlimit="10" stroke-linejoin="miter" fill="none" stroke="#cccccc" d="M414.72 43.2V304.128"/>
<path transform="matrix(1,0,0,-1,0,345.6)" stroke-width=".8" stroke-linecap="square" stroke-miterlimit="10" stroke-linejoin="miter" fill="none" stroke="#cccccc" d="M57.6 43.2H414.72"/>
<path transform="matrix(1,0,0,-1,0,345.6)" stroke-width=".8" stroke-linecap="square" stroke-miterlimit="10" stroke-linejoin="miter" fill="none" stroke="#cccccc" d="M57.6 304.128H414.72"/>
<g>
<path transform="matrix(1,0,0,-1,0,345.6)" d="M328.56065 260.55928H406.32C407.92 260.55928 408.72 261.35926 408.72 262.95927V295.728C408.72 297.328 407.92 298.128 406.32 298.128H328.56065C326.96064 298.128 326.1606 297.328 326.1606 295.728V262.95927C326.1606 261.35926 326.96064 260.55928 328.56065 260.55928Z" fill="#ffffff" fill-opacity=".8"/>
<path transform="matrix(1,0,0,-1,0,345.6)" stroke-width="1" stroke-linecap="butt" stroke-miterlimit="10" stroke-linejoin="miter" fill="none" stroke="#cccccc" stroke-opacity=".8" d="M328.56065 260.55928H406.32C407.92 260.55928 408.72 261.35926 408.72 262.95927V295.728C408.72 297.328 407.92 298.128 406.32 298.128H328.56065C326.96064 298.128 326.1606 297.328 326.1606 295.728V262.95927C326.1606 261.35926 326.96064 260.55928 328.56065 260.55928Z"/>
</g>
<path transform="matrix(1,0,0,-1,0,345.6)" stroke-width="1.5" stroke-linecap="round" stroke-linejoin="round" fill="none" stroke="#1f77b4" d="M330.96064 288.93428H354.96064"/>
<path transform="matrix(1,0,0,-1,0,345.6)" d="M342.96064 285.93428C343.75624 285.93428 344.51939 286.25035 345.08195 286.81294 345.64454 287.37553 345.96064 288.13865 345.96064 288.93428 345.96064 289.72987 345.64454 290.49299 345.08195 291.05558 344.51939 291.61817 343.75624 291.93428 342.96064 291.93428 342.165 291.93428 341.4019 291.61817 340.8393 291.05558 340.27674 290.49299 339.96064 289.72987 339.96064 288.93428 339.96064 288.13865 340.27674 287.37553 340.8393 286.81294 341.4019 286.25035 342.165 285.93428 342.96064 285.93428Z" fill="#1f77b4"/>
<path transform="matrix(1,0,0,-1,0,345.6)" stroke-width="1" stroke-linecap="butt" stroke-linejoin="round" fill="none" stroke="#1f77b4" d="M342.96064 285.93428C343.75624 285.93428 344.51939 286.25035 345.08195 286.81294 345.64454 287.37553 345.96064 288.13865 345.96064 288.93428 345.96064 289.72987 345.64454 290.49299 345.08195 291.05558 344.51939 291.61817 343.75624 291.93428 342.96064 291.93428 342.165 291.93428 341.4019 291.61817 340.8393 291.05558 340.27674 290.49299 339.96064 289.72987 339.96064 288.93428 339.96064 288.13865 340.27674 287.37553 340.8393 286.81294 341.4019 286.25035 342.165 285.93428 342.96064 285.93428Z"/>
<text fill="#262626" xml:space="preserve" transform="matrix(1 0 -0 1 0 345.6)" font-size="12" font-family="ArialMT"><tspan y="-284.73426" x="364.56065 372.56465 381.22865">PCA</tspan></text>
<path transform="matrix(1,0,0,-1,0,345.6)" stroke-width="1.5" stroke-linecap="round" stroke-linejoin="round" fill="none" stroke="#ff7f0e" d="M330.96064 271.9499H354.96064"/>
<path transform="matrix(1,0,0,-1,0,345.6)" d="M342.96064 268.9499C343.75624 268.9499 344.51939 269.26597 345.08195 269.82856 345.64454 270.39115 345.96064 271.15428 345.96064 271.9499 345.96064 272.74549 345.64454 273.5086 345.08195 274.0712 344.51939 274.6338 343.75624 274.9499 342.96064 274.9499 342.165 274.9499 341.4019 274.6338 340.8393 274.0712 340.27674 273.5086 339.96064 272.74549 339.96064 271.9499 339.96064 271.15428 340.27674 270.39115 340.8393 269.82856 341.4019 269.26597 342.165 268.9499 342.96064 268.9499Z" fill="#ff7f0e"/>
<path transform="matrix(1,0,0,-1,0,345.6)" stroke-width="1" stroke-linecap="butt" stroke-linejoin="round" fill="none" stroke="#ff7f0e" d="M342.96064 268.9499C343.75624 268.9499 344.51939 269.26597 345.08195 269.82856 345.64454 270.39115 345.96064 271.15428 345.96064 271.9499 345.96064 272.74549 345.64454 273.5086 345.08195 274.0712 344.51939 274.6338 343.75624 274.9499 342.96064 274.9499 342.165 274.9499 341.4019 274.6338 340.8393 274.0712 340.27674 273.5086 339.96064 272.74549 339.96064 271.9499 339.96064 271.15428 340.27674 270.39115 340.8393 269.82856 341.4019 269.26597 342.165 268.9499 342.96064 268.9499Z"/>
<text fill="#262626" xml:space="preserve" transform="matrix(1 0 -0 1 0 345.6)" font-size="12" font-family="ArialMT"><tspan y="-267.74989" x="364.56065 373.22465 379.89665 386.56864 390.56465 397.23664">Neuron</tspan></text>
</g>
</svg>
